<?xml version="1.0" standalone="no"?>
<!DOCTYPE svg PUBLIC "-//W3C//DTD SVG 20010904//EN"
 "http://www.w3.org/TR/2001/REC-SVG-20010904/DTD/svg10.dtd">
<svg version="1.0" xmlns="http://www.w3.org/2000/svg"
 width="500.000000pt" height="500.000000pt" viewBox="0 0 500.000000 500.000000"
 preserveAspectRatio="xMidYMid meet">
<metadata>
Created by potrace 1.14, written by Peter Selinger 2001-2017
</metadata>
<g transform="translate(0.000000,500.000000) scale(0.100000,-0.100000)"
fill="#000000" stroke="none">
<path d="M329 4996 c-2 -3 -17 -7 -33 -10 -109 -20 -232 -137 -275 -261 -20
-60 -20 -69 -21 -2221 0 -2398 -5 -2213 66 -2320 46 -70 94 -110 172 -147 l67
-32 2180 -2 2180 -3 63 23 c119 43 211 135 252 255 19 56 19 95 17 2237 l-2
2180 -32 67 c-44 93 -100 151 -191 196 l-76 37 -2181 3 c-1200 1 -2184 0
-2186 -2z"/>
</g>
</svg>
